<svg width="124" height="20" viewBox="0 0 124 20" fill="none" xmlns="http://www.w3.org/2000/svg">
<path fill-rule="evenodd" clip-rule="evenodd" d="M58.8317 6.61269V15.2486H61.4027V7.74802C60.5761 7.33466 59.7179 6.95673 58.8317 6.61269ZM56.2001 5.71262C56.3612 6.40085 56.4418 7.15052 56.4418 7.96165C56.4418 9.4768 56.16 10.7789 55.5966 11.8679C55.0379 12.9569 54.2306 13.7926 53.1747 14.375C52.1236 14.9574 50.8594 15.2486 49.3821 15.2486H44.4531V3.82792C45.3393 3.8713 46.2183 3.93281 47.0881 4.01332V12.9688H49.2543C50.2675 12.9688 51.1127 12.7841 51.7898 12.4148C52.4669 12.0407 52.9759 11.4844 53.3168 10.7457C53.6577 10.0024 53.8281 9.07434 53.8281 7.96165C53.8281 6.84896 53.6577 5.92566 53.3168 5.19176C53.2767 5.1049 53.2343 5.02063 53.1897 4.93894C54.2171 5.16264 55.2219 5.41995 56.2001 5.71262ZM58.8317 5.54225C59.7147 5.87349 60.5729 6.2371 61.4027 6.63461V4.33949H58.8317V5.54225ZM68.0917 10.8248C67.2688 10.3055 66.4364 9.73907 65.5937 9.12258C65.0483 8.72353 64.4829 8.34568 63.8993 7.98835C63.8781 7.83394 63.868 7.67353 63.869 7.5071C63.8642 6.83475 64.0465 6.25237 64.4158 5.75994C64.7899 5.26278 65.3083 4.87926 65.9712 4.60938C66.6388 4.33475 67.4083 4.19744 68.2795 4.19744C69.5579 4.19744 70.564 4.4697 71.2979 5.0142C72.0366 5.55871 72.4935 6.29498 72.6687 7.22301L70.3249 7.47869C70.2586 7.24195 70.1426 7.01941 69.9769 6.81108C69.8159 6.60275 69.5981 6.43466 69.3235 6.30682C69.0489 6.17898 68.7127 6.11506 68.315 6.11506C67.7799 6.11506 67.3301 6.23106 66.9656 6.46307C66.6057 6.69508 66.4281 6.99574 66.4329 7.36506C66.4281 7.68229 66.5442 7.94034 66.7809 8.1392C67.0224 8.33807 67.4201 8.50142 67.9741 8.62926L69.8349 9.02699C70.8671 9.24953 71.6341 9.60227 72.136 10.0852C72.6426 10.5682 72.8983 11.2003 72.9031 11.9815C72.8998 12.4459 72.8067 12.8735 72.6237 13.2642C71.8444 12.9172 71.0574 12.5294 70.2621 12.0981C70.2351 11.838 70.1163 11.6192 69.9059 11.4418C69.6692 11.2382 69.2998 11.0819 68.7979 10.973L68.0917 10.8248ZM69.8703 13.023C69.8205 13.0656 69.7661 13.1067 69.707 13.1463C69.3377 13.3973 68.8476 13.5227 68.2369 13.5227C67.645 13.5227 67.1644 13.3973 66.7951 13.1463C66.4258 12.8954 66.1843 12.5237 66.0707 12.0312L63.5636 12.2727C63.7198 13.2765 64.2051 14.0601 65.0195 14.6236C65.8339 15.1823 66.9087 15.4616 68.244 15.4616C69.153 15.4616 69.958 15.3149 70.6587 15.0213C71.2186 14.7868 71.6803 14.4797 72.0437 14.1C71.3248 13.7749 70.6005 13.4165 69.8703 13.023ZM98.5456 13.9251C98.5777 13.9844 98.6121 14.0421 98.6488 14.098C98.9518 14.5526 99.3614 14.8887 99.8775 15.1065C100.394 15.3196 100.974 15.4167 101.618 15.3977C101.982 15.3883 102.29 15.3551 102.541 15.2983C102.797 15.2415 102.993 15.1894 103.13 15.142L102.697 13.1321C102.626 13.151 102.522 13.1723 102.385 13.196C102.252 13.2197 102.105 13.2315 101.944 13.2315C101.731 13.2315 101.537 13.1984 101.362 13.1321C101.282 13.102 101.21 13.0601 101.144 13.0066C100.274 13.3244 99.4084 13.632 98.5456 13.9251ZM104.704 11.6676C104.809 12.0838 104.952 12.4725 105.135 12.8338C105.561 13.6719 106.17 14.3205 106.96 14.7798C107.756 15.2344 108.7 15.4616 109.794 15.4616C110.642 15.4616 111.394 15.3338 112.053 15.0781C112.711 14.8177 113.25 14.4531 113.672 13.9844C114.098 13.5109 114.387 12.9569 114.538 12.3224L112.138 12.0526C112.024 12.3603 111.856 12.6184 111.634 12.8267C111.411 13.035 111.148 13.1937 110.845 13.3026C110.542 13.4067 110.204 13.4588 109.83 13.4588C109.271 13.4588 108.783 13.3404 108.366 13.1037C107.95 12.8622 107.625 12.5166 107.393 12.0668C107.203 11.6932 107.09 11.2589 107.056 10.7638C106.746 10.8831 106.436 11.0023 106.127 11.1213C105.651 11.3042 105.177 11.4866 104.704 11.6676ZM107.752 10.4972H114.645V9.70881C114.645 9.09795 114.591 8.54116 114.483 8.03846C112.361 8.75769 110.293 9.52774 108.262 10.3024C108.092 10.3673 107.922 10.4322 107.752 10.4972ZM114.186 7.08311C113.927 6.45618 113.583 5.93463 113.153 5.51847C112.694 5.06866 112.164 4.73722 111.562 4.52415C110.966 4.30635 110.331 4.19744 109.659 4.19744C108.617 4.19744 107.711 4.43655 106.939 4.91477C106.167 5.38826 105.566 6.05114 105.135 6.90341C104.709 7.75095 104.496 8.7358 104.496 9.85795C104.496 10.1348 104.508 10.4028 104.533 10.6621C104.94 10.5061 105.349 10.349 105.759 10.1913L105.759 10.1912C106.469 9.91825 107.184 9.64317 107.905 9.36801C108.434 9.1664 108.966 8.96485 109.501 8.7642H107.051C107.075 8.3368 107.185 7.94144 107.379 7.57812C107.602 7.16619 107.912 6.83475 108.31 6.58381C108.707 6.32813 109.169 6.20028 109.695 6.20028C110.187 6.20028 110.618 6.31155 110.987 6.53409C111.361 6.75663 111.652 7.06203 111.861 7.45028C111.928 7.57312 111.984 7.70155 112.03 7.83556C112.742 7.58033 113.46 7.32889 114.186 7.08311ZM116.82 7.27589V15.2486H119.391V8.83523C119.391 8.37121 119.498 7.96165 119.711 7.60653C119.924 7.25142 120.215 6.97443 120.584 6.77557C120.958 6.57197 121.38 6.47017 121.848 6.47017C122.066 6.47017 122.291 6.48674 122.523 6.51989C122.76 6.5483 122.933 6.58144 123.042 6.61932V5.59731C120.907 6.07285 118.838 6.64491 116.82 7.27589ZM123.042 4.57317V4.25426C122.923 4.23059 122.774 4.21402 122.594 4.20455C122.419 4.19034 122.26 4.18324 122.118 4.18324C121.493 4.18324 120.937 4.35606 120.449 4.7017C120.193 4.88248 119.977 5.10386 119.801 5.36584C120.865 5.07976 121.944 4.81384 123.042 4.57317ZM119.313 5.49876C118.472 5.7307 117.641 5.97487 116.82 6.22872V4.33949H119.313V5.49876ZM100.781 12.0743C99.9308 12.3851 99.0857 12.6854 98.2444 12.9714C98.219 12.7888 98.207 12.5962 98.2085 12.3935V6.32812H96.6602V4.33949H98.2085V1.72585H100.779V4.33949H102.931V6.32812H100.779V11.9673C100.779 12.0039 100.78 12.0396 100.781 12.0743ZM94.4483 14.1575C94.5613 14.0449 94.6653 13.9256 94.7603 13.7997C95.158 13.2741 95.3593 12.6681 95.364 11.9815C95.3593 11.2003 95.1036 10.5682 94.5969 10.0852C94.0951 9.60227 93.328 9.24953 92.2958 9.02699L90.435 8.62926C89.881 8.50142 89.4833 8.33807 89.2418 8.1392C89.0051 7.94034 88.8891 7.68229 88.8938 7.36506C88.8891 6.99574 89.0666 6.69508 89.4265 6.46307C89.7911 6.23106 90.2409 6.11506 90.7759 6.11506C91.1736 6.11506 91.5098 6.17898 91.7844 6.30682C92.0591 6.43466 92.2769 6.60275 92.4379 6.81108C92.6036 7.01941 92.7196 7.24195 92.7859 7.47869L95.1296 7.22301C94.9544 6.29498 94.4975 5.55871 93.7589 5.0142C93.025 4.4697 92.0188 4.19744 90.7404 4.19744C89.8692 4.19744 89.0998 4.33475 88.4322 4.60938C87.7693 4.87926 87.2508 5.26278 86.8768 5.75994C86.5075 6.25237 86.3252 6.83475 86.3299 7.5071C86.3252 8.30256 86.5737 8.9607 87.0756 9.48153C87.5775 9.99763 88.3517 10.3646 89.3981 10.5824L91.2589 10.973C91.7608 11.0819 92.1301 11.2382 92.3668 11.4418C92.6083 11.6454 92.729 11.9034 92.729 12.2159C92.729 12.5852 92.542 12.8954 92.168 13.1463C91.7987 13.3973 91.3086 13.5227 90.6978 13.5227C90.1059 13.5227 89.6254 13.3973 89.256 13.1463C88.8867 12.8954 88.6452 12.5237 88.5316 12.0312L86.0245 12.2727C86.1807 13.2765 86.6661 14.0601 87.4805 14.6236C87.968 14.9581 88.5489 15.1924 89.2232 15.3267C90.7798 15.0789 92.3352 14.7314 93.8982 14.3091C94.0815 14.2596 94.2649 14.2091 94.4483 14.1575ZM79.3213 15.3358C79.4342 15.3067 79.5427 15.2729 79.6467 15.2344C80.0728 15.0734 80.4255 14.8627 80.7049 14.6023C80.989 14.3371 81.2092 14.053 81.3654 13.75H81.4506V15.2486H83.9222V7.94744C83.9222 7.22301 83.7896 6.61932 83.5245 6.13636C83.2641 5.65341 82.9184 5.27225 82.4876 4.9929C82.0567 4.70881 81.5808 4.50521 81.06 4.3821C80.5392 4.259 80.016 4.19744 79.4904 4.19744C78.7281 4.19744 78.0321 4.31108 77.4023 4.53835C76.7726 4.76089 76.2399 5.09706 75.8043 5.54688C75.3687 5.99195 75.0562 6.54593 74.8668 7.20881L77.2674 7.54972C77.3952 7.17566 77.6414 6.85133 78.006 6.5767C78.3754 6.30208 78.8749 6.16477 79.5046 6.16477C80.1012 6.16477 80.5581 6.31155 80.8754 6.60511C81.1926 6.89867 81.3512 7.31297 81.3512 7.84801V7.89062C81.3512 8.13684 81.2589 8.31913 81.0742 8.4375C80.8943 8.55114 80.6055 8.63636 80.2077 8.69318C79.81 8.74527 79.2915 8.80445 78.6523 8.87074C78.122 8.92756 77.6083 9.01989 77.1111 9.14773C76.6187 9.27083 76.176 9.45312 75.783 9.6946C75.39 9.93608 75.0799 10.258 74.8526 10.6605C74.6254 11.063 74.5117 11.572 74.5117 12.1875C74.5117 12.9025 74.6703 13.5038 74.9876 13.9915C75.0532 14.0909 75.1236 14.1854 75.1987 14.2751C76.5933 14.7492 77.9658 15.0973 79.3213 15.3358ZM55.8335 4.56521C54.6091 4.22183 53.3481 3.93124 52.0582 3.69002C51.9763 3.63577 51.8915 3.58475 51.804 3.53693C51.1411 3.16761 50.3172 2.98295 49.3324 2.98295H47.0881V3.00915C46.2172 2.92994 45.3382 2.86946 44.4531 2.82682V0.703125H49.4815C50.9257 0.703125 52.1662 0.994318 53.2031 1.5767C54.2448 2.15436 55.045 2.98532 55.6037 4.0696C55.6864 4.23014 55.763 4.39534 55.8335 4.56521ZM29.1957 3.65112V0.703125H26.6246V4.0639C27.3969 3.92872 28.1743 3.80274 28.9554 3.68653C29.0355 3.67463 29.1155 3.66283 29.1957 3.65112ZM26.6246 5.07927V15.2486H29.1957V4.66185C29.1646 4.66644 29.1336 4.67103 29.1026 4.67565C28.2717 4.79926 27.4451 4.93404 26.6246 5.07927ZM23.184 5.75617C23.5421 6.16471 23.8313 6.65839 24.0518 7.23722C24.317 7.9285 24.4496 8.75237 24.4496 9.70881V10.4972H16.8505C16.8581 11.1044 16.974 11.6276 17.1982 12.0668C17.4302 12.5166 17.7545 12.8622 18.1712 13.1037C18.5878 13.3404 19.0755 13.4588 19.6342 13.4588C20.0083 13.4588 20.3468 13.4067 20.6499 13.3026C20.9529 13.1937 21.2157 13.035 21.4382 12.8267C21.6607 12.6184 21.8288 12.3603 21.9425 12.0526L24.343 12.3224C24.1915 12.9569 23.9027 13.5109 23.4766 13.9844C23.0552 14.4531 22.5154 14.8177 21.8572 15.0781C21.1991 15.3338 20.4463 15.4616 19.5987 15.4616C18.505 15.4616 17.5604 15.2344 16.7649 14.7798C15.9742 14.3205 15.3658 13.6719 14.9396 12.8338C14.5135 11.991 14.3004 10.9991 14.3004 9.85795C14.3004 9.23105 14.3669 8.64699 14.4999 8.1058C15.4508 7.79271 16.4279 7.49146 17.4273 7.2038C17.337 7.32016 17.2559 7.44494 17.1839 7.57812C16.9896 7.94144 16.8801 8.3368 16.8554 8.7642H21.9851C21.9804 8.27178 21.8738 7.83381 21.6655 7.45028C21.4572 7.06203 21.166 6.75663 20.7919 6.53409C20.6956 6.47606 20.5951 6.4256 20.4904 6.3827C21.3759 6.1624 22.2745 5.9532 23.184 5.75617ZM22.2317 4.94246C21.962 4.77224 21.6738 4.6328 21.3672 4.52415C20.7706 4.30635 20.1361 4.19744 19.4638 4.19744C18.4221 4.19744 17.5154 4.43655 16.7436 4.91477C15.9718 5.38826 15.3705 6.05114 14.9396 6.90341C14.9378 6.90696 14.9361 6.91052 14.9343 6.91408C17.2437 6.17894 19.6936 5.51416 22.2317 4.94246ZM12.017 7.90693V0.703125H9.375V6.8608H2.63494V0.703125H0V14.2281C0.757955 13.585 1.6418 12.9478 2.63494 12.3228V9.0696H9.0393C9.58599 8.84027 10.1459 8.61487 10.718 8.39382C11.1441 8.22918 11.5772 8.06682 12.017 7.90693ZM12.017 8.97197V15.2486H9.375V10.0132C9.92781 9.78073 10.496 9.55167 11.0784 9.32661C11.3875 9.20717 11.7004 9.08893 12.017 8.97197ZM2.63494 13.5126C1.76452 14.0885 0.998906 14.6692 0.350291 15.2486H2.63494V13.5126ZM59.0732 2.38636C59.3667 2.65625 59.7171 2.79119 60.1243 2.79119C60.5362 2.79119 60.8866 2.65625 61.1754 2.38636C61.469 2.11174 61.6158 1.78267 61.6158 1.39915C61.6158 1.01089 61.469 0.681818 61.1754 0.411931C60.8866 0.13731 60.5362 0 60.1243 0C59.7171 0 59.3667 0.13731 59.0732 0.411931C58.7796 0.681818 58.6328 1.01089 58.6328 1.39915C58.6328 1.78267 58.7796 2.11174 59.0732 2.38636ZM31.8395 4.33949V19.3395H34.4105V13.5298H34.517C34.6544 13.795 34.8461 14.0767 35.0923 14.375C35.3433 14.6686 35.6747 14.9195 36.0866 15.1278C36.4986 15.3362 37.017 15.4403 37.642 15.4403C38.4991 15.4403 39.2661 15.2202 39.9432 14.7798C40.6203 14.3395 41.1553 13.7003 41.5483 12.8622C41.9413 12.0241 42.1378 11.0062 42.1378 9.80824C42.1378 8.59612 41.9366 7.57339 41.5341 6.74006C41.1364 5.90199 40.5966 5.26989 39.9148 4.84375C39.2377 4.41288 38.4777 4.19744 37.6349 4.19744C36.9957 4.19744 36.4702 4.30635 36.0582 4.52415C35.6463 4.73722 35.3196 4.99527 35.0781 5.2983C34.8366 5.59659 34.6496 5.87831 34.517 6.14347H34.3679V4.33949H31.8395ZM34.6591 11.6477C34.4602 11.1174 34.3608 10.4995 34.3608 9.79403C34.3608 9.08854 34.4579 8.47538 34.652 7.95455C34.8509 7.43371 35.142 7.02888 35.5256 6.74006C35.9091 6.45123 36.3755 6.30682 36.9247 6.30682C37.4976 6.30682 37.9759 6.45597 38.3594 6.75426C38.7429 7.05256 39.0317 7.46449 39.2259 7.99006C39.42 8.51562 39.517 9.11695 39.517 9.79403C39.517 10.4759 39.4176 11.0843 39.2188 11.6193C39.0246 12.1496 38.7358 12.5687 38.3523 12.8764C37.9688 13.1795 37.4929 13.331 36.9247 13.331C36.3802 13.331 35.9162 13.1842 35.5327 12.8906C35.1539 12.5923 34.8627 12.178 34.6591 11.6477ZM80.1722 13.2741C79.7934 13.4777 79.346 13.5795 78.8299 13.5795C78.2949 13.5795 77.8545 13.4588 77.5089 13.2173C77.1632 12.9759 76.9904 12.6184 76.9904 12.1449C76.9904 11.8134 77.078 11.5436 77.2532 11.3352C77.4284 11.1222 77.6675 10.9564 77.9705 10.8381C78.2736 10.7197 78.6168 10.6345 79.0004 10.5824C79.1708 10.5587 79.372 10.5303 79.604 10.4972C79.8361 10.464 80.0704 10.4261 80.3072 10.3835C80.5439 10.3409 80.757 10.2912 80.9464 10.2344C81.1405 10.1776 81.2778 10.116 81.3583 10.0497V11.3352C81.3583 11.7377 81.2541 12.1094 81.0458 12.4503C80.8422 12.7912 80.551 13.0658 80.1722 13.2741Z" fill="#2D69E9"/>
</svg>
